<?xml version="1.0" encoding="utf-8"?>
<!-- Generator: Adobe Illustrator 16.0.4, SVG Export Plug-In . SVG Version: 6.00 Build 0)  -->
<!DOCTYPE svg PUBLIC "-//W3C//DTD SVG 1.1//EN" "http://www.w3.org/Graphics/SVG/1.1/DTD/svg11.dtd">
<svg version="1.1" id="Layer_8" xmlns="http://www.w3.org/2000/svg" xmlns:xlink="http://www.w3.org/1999/xlink" x="0px" y="0px"
	 width="308px" height="108px" viewBox="0 0 308 108" enable-background="new 0 0 308 108" xml:space="preserve">
<g>
	<path fill="#515A62" d="M109.195,54.014c-4.559,7.848-10.903,13.863-18.423,13.863c-6.485,0-8.13-4.417-8.13-9.023
		c0-2.256,0.376-4.98,1.128-7.848c-6.626-1.928-9.165-6.956-9.165-11.374c0-4.793,2.914-8.835,6.157-10.622l2.35,3.337
		c-0.94,0.517-4.464,3.055-4.464,7.473c0,3.102,2.584,6.58,6.25,7.426c3.525-10.387,10.762-21.337,18.517-21.337
		c4.324,0,6.626,3.431,6.626,7.52c0,3.572-1.598,8.365-5.64,12.313c-3.478,3.384-8.6,5.969-15.18,5.969h-0.658
		c-0.846,2.772-1.222,5.451-1.222,7.284c0,2.819,1.034,5.122,4.512,5.122c4.605,0,11.044-4.276,15.321-11.561
		C107.879,52.557,108.96,53.309,109.195,54.014z M89.927,47.763c4.559-0.141,8.365-2.067,11.044-4.841
		c2.726-2.819,4.23-6.297,4.23-8.882c0-1.974-0.846-3.384-2.538-3.384C98.433,30.656,93.075,39.444,89.927,47.763z"/>
	<path fill="#515A62" d="M121.604,54.014c-3.76,6.532-7.942,11.796-12.642,11.796c-3.807,0-6.11-2.632-2.726-11.044l9.399-23.264
		h4.935l-10.151,25.144c-2.068,5.122-1.175,6.016-0.141,6.016c2.397,0,6.109-4.653,9.306-10.104
		C120.288,52.557,121.369,53.309,121.604,54.014z"/>
	<path fill="#515A62" d="M145.996,54.014c-3.619,6.297-7.849,11.796-12.689,11.796c-4.277,0-4.277-3.76-4.277-3.76
		s-2.82,3.76-6.626,3.76c-3.008,0-4.512-2.303-4.512-5.264c0-5.028,4.417-20.35,12.407-20.35c3.947,0,4.652,3.807,4.652,3.807
		l6.251-3.196l-6.392,15.839c-1.927,4.794-1.316,6.016-0.094,6.016c2.35,0,6.062-4.653,9.258-10.104
		C144.68,52.557,145.761,53.309,145.996,54.014z M129.547,57.397l3.9-9.635c0,0,0.047-3.384-2.303-3.384
		c-4.418,0-8.554,11.702-8.554,15.415c0,1.315,0.517,1.927,1.551,1.927C126.915,61.721,129.547,57.397,129.547,57.397z"/>
	<path fill="#515A62" d="M143.977,52.557c2.115-3.619,5.169-9.446,6.955-13.395l3.948,1.645c-1.645,6.533-0.658,14.193-0.611,16.967
		c0,1.363-0.141,2.632-0.517,3.76c2.537-1.316,5.311-5.311,7.426-8.977c0.704,0,1.785,0.752,2.021,1.457
		c-3.431,6.016-7.237,11.796-14.851,11.796c-4.183,0-6.204-2.538-6.486-3.196l2.585-1.598c0.846,0.94,1.739,1.27,2.679,1.27
		c1.833,0,2.82-1.223,2.82-5.64c0-2.397-0.282-5.922-0.188-9.588c-1.222,2.397-2.585,4.888-3.76,6.956
		C145.292,54.014,144.211,53.262,143.977,52.557z"/>
	<path fill="#515A62" d="M161.179,52.557c2.114-3.619,5.169-9.446,6.955-13.395l3.948,1.645c-1.646,6.533-0.658,14.193-0.611,16.967
		c0,1.363-0.141,2.632-0.517,3.76c2.538-1.316,5.311-5.311,7.425-8.977c0.705,0,1.786,0.752,2.021,1.457
		c-3.431,6.016-7.237,11.796-14.852,11.796c-4.183,0-6.203-2.538-6.485-3.196l2.585-1.598c0.846,0.94,1.739,1.27,2.679,1.27
		c1.833,0,2.82-1.223,2.82-5.64c0-2.397-0.282-5.922-0.188-9.588c-1.222,2.397-2.585,4.888-3.76,6.956
		C162.494,54.014,161.413,53.262,161.179,52.557z"/>
	<path fill="#515A62" d="M192.809,54.014c-3.76,6.532-7.942,11.796-12.643,11.796c-3.807,0-6.109-2.632-2.726-11.044l5.64-13.959
		h4.935l-6.392,15.839c-2.067,5.122-1.175,6.016-0.141,6.016c2.396,0,6.109-4.653,9.306-10.104
		C191.493,52.557,192.574,53.309,192.809,54.014z M184.96,35.026c0-1.598,1.27-2.867,2.867-2.867s2.914,1.269,2.914,2.867
		c0,1.598-1.316,2.914-2.914,2.914S184.96,36.625,184.96,35.026z"/>
	<path fill="#515A62" d="M210.949,54.014c-3.148,5.687-7.896,9.869-15.133,9.446c0,0,0.141,1.315-0.094,2.726
		c-0.518,3.008-1.645,6.251-3.102,8.883c-1.599,2.819-3.572,4.888-6.627,4.888c-3.243,0-5.404-2.303-2.961-8.318l13.911-34.449
		c2.867-7.285,5.828-9.446,9.212-9.446c3.76,0,5.357,3.196,3.713,8.412c-1.129,3.572-3.713,9.682-6.016,13.864
		c-2.444,4.418-4.184,6.532-9.917,6.721l-1.081,2.632c0.894,0.799,2.209,1.504,4.089,1.504c5.028,0,8.741-2.632,11.984-8.318
		C209.634,52.557,210.715,53.309,210.949,54.014z M191.728,62.191l-4.935,12.125c-0.752,2.021-0.282,2.303,0.047,2.35
		c2.632,0.376,5.357-7.613,6.016-10.715C193.373,63.46,192.762,62.52,191.728,62.191z M201.456,38.223l-6.438,15.838
		c2.35-0.329,3.713-1.691,5.404-4.794c3.479-6.485,5.64-12.454,6.204-14.381c0.376-1.316,0.705-3.149-0.423-3.149
		C204.37,31.737,202.772,34.979,201.456,38.223z"/>
	<path fill="#515A62" d="M234.073,54.014c-4.841,8.506-10.716,11.232-15.087,13.3c0,0-0.61,1.599-1.362,3.337
		c-1.88,4.324-4.183,8.318-8.883,8.318c-3.102,0-4.981-1.88-4.794-4.512c0.188-2.819,2.68-4.605,5.17-5.828
		c1.739-0.846,4.418-1.879,5.452-2.537l1.315-3.195c0,0-2.303,2.913-5.404,2.913c-3.431,0-5.969-2.632-2.491-11.044l5.64-13.959
		h4.935l-6.392,15.839c-1.927,4.747-1.315,5.546-0.328,5.546c2.772,0,6.156-5.405,7.989-8.977l4.981-12.408h4.935l-9.353,23.029
		c4.418-2.256,8.318-5.451,11.655-11.279C232.757,52.557,233.838,53.309,234.073,54.014z M208.131,75.585
		c1.315-0.047,3.289-1.41,4.981-5.874c-1.41,0.563-2.726,1.033-4.042,1.832c-1.128,0.705-2.35,1.692-2.35,2.82
		C206.721,75.115,207.284,75.632,208.131,75.585z"/>
</g>
</svg>
