<?xml version="1.0" encoding="utf-8"?>
<!-- Generator: Adobe Illustrator 16.0.4, SVG Export Plug-In . SVG Version: 6.00 Build 0)  -->
<!DOCTYPE svg PUBLIC "-//W3C//DTD SVG 1.1//EN" "http://www.w3.org/Graphics/SVG/1.1/DTD/svg11.dtd">
<svg version="1.1" id="Layer_5" xmlns="http://www.w3.org/2000/svg" xmlns:xlink="http://www.w3.org/1999/xlink" x="0px" y="0px"
	 width="308px" height="108px" viewBox="0 0 308 108" enable-background="new 0 0 308 108" xml:space="preserve">
<g>
	<path fill="#515A62" d="M106.972,31.132c-1.708,0-3.478-0.183-5.429-0.488c0.243,0.244,0.426,1.038,0.243,1.525
		c-1.952,7.688-3.416,13.728-4.575,18.792c6.772,0.183,12.568,0,12.568,0.854c0,0.671-1.342,1.282-8.176,1.282
		c-1.402,0-3.05,0-4.881-0.062c-1.22,5.553-2.135,9.884-2.928,13.85c-0.245,1.098-1.16,1.586-2.075,1.586
		c-1.22,0-2.562-0.854-2.562-2.38c0-3.478,1.281-8.479-3.417-13.3l-3.6-0.183c-1.708-0.061-2.501-0.977-2.501-1.892
		c0-0.977,0.854-1.891,2.563-1.891c1.83,0,3.355,0.671,4.637,1.708c1.708,0.122,3.232,0.183,4.698,0.244
		c0.914-4.942,2.135-10.25,4.271-17.816c0.367-1.28,1.769-2.318,3.111-2.684c-2.196-0.305-4.454-0.549-6.772-0.549
		c-1.28,0-2.623,0.244-3.904,0.244c-0.671,0-0.976-0.305-0.976-0.854c0-1.159,1.586-3.173,2.928-3.355
		c1.647-0.244,3.417-0.305,5.125-0.305c3.111,0,6.224,0.244,9.212,0.244c1.832,0,3.601-0.366,5.187-0.366
		c1.038,0,1.525,1.22,1.525,2.563c0,1.403-0.548,2.867-1.707,3.05C108.742,31.07,107.887,31.132,106.972,31.132z M91.171,52.913
		c-0.733,0-1.587,0-2.38-0.061c0.732,1.221,1.342,2.685,1.708,4.271C90.683,55.72,90.926,54.316,91.171,52.913z"/>
	<path fill="#515A62" d="M108.863,61.82c0,1.647,0.427,2.562,1.342,2.562c3.539,0,5.857-11.775,8.603-24.405
		c0.427-2.013,1.891-2.929,3.355-2.929c1.343,0,2.624,0.916,2.624,2.502c0,2.44-5.125,19.523-5.125,23.734
		c0,1.098,0.245,1.646,0.794,1.646c2.196,0,5.918-7.81,6.589-9.15c0.367-0.733,0.733-1.038,1.038-1.038
		c0.244,0,0.427,0.184,0.427,0.609c0,0.245-0.062,0.612-0.244,1.038c-0.854,2.136-4.821,12.141-9.945,12.141
		c-1.831,0-4.027-0.976-4.148-5.125c-1.648,3.173-3.662,5.125-6.163,5.125c-3.417,0-4.576-2.623-4.576-6.527
		c0-5.92,2.563-14.765,3.783-22.086c0.305-1.892,1.892-2.746,3.294-2.746c1.342,0,2.625,0.793,2.625,2.257
		c0,0.183,0,0.427-0.062,0.61C111.12,49.74,108.863,57.855,108.863,61.82z"/>
	<path fill="#515A62" d="M128.081,68.715c-1.281,0-2.685-0.916-2.685-2.745c0-0.184,0.061-0.367,0.061-0.55
		c1.098-9.152,2.502-15.313,5.369-25.075c0.305-1.099,1.281-1.586,2.257-1.586c1.465,0,2.989,1.037,2.989,2.806
		c0,1.586-1.038,4.087-1.403,5.674c2.502-5.735,5.614-10.189,8.787-10.189c3.6,0,4.515,3.295,4.515,5.552
		c0,6.895-5.918,17.449-5.918,21.172c0,0.793,0.305,1.279,0.976,1.279c2.684,0,6.894-8.052,7.625-9.271
		c0.367-0.611,0.854-1.038,1.16-1.038c0.182,0,0.305,0.121,0.305,0.427c0,0.244-0.062,0.611-0.244,1.098
		c-0.733,2.197-5.187,12.447-10.494,12.447c-2.441,0-4.76-1.708-4.76-5.37c0-5.489,5.856-16.533,5.856-20.621
		c0-0.793-0.305-1.464-0.976-1.464c-2.257,0-7.626,9.457-10.005,20.5l-0.184,0.428c-0.305,1.708-0.549,3.173-0.732,4.515
		C130.338,68.044,129.239,68.715,128.081,68.715z"/>
	<path fill="#515A62" d="M166.518,62.309c0,1.648,0.365,2.563,1.221,2.563c2.135,0,4.697-5.736,6.345-9.091
		c0.306-0.672,0.793-1.038,1.098-1.038c0.245,0,0.366,0.243,0.366,0.609c0,0.245-0.062,0.612-0.243,1.038
		c-1.526,3.722-3.966,12.141-9.945,12.141c-2.441,0-3.844-2.623-3.844-6.284c0-0.182,0-0.549,0.062-0.915
		c-2.075,4.454-4.516,7.199-6.59,7.199c-3.294,0-4.698-3.537-4.698-8.297c0-9.274,5.368-23.062,12.385-23.062
		c1.646,0,2.623,1.464,3.173,2.928c1.281-5.735,2.685-11.226,3.6-14.582c0.243-0.916,1.037-1.342,1.951-1.342
		c1.526,0,3.356,1.22,3.356,3.478C174.754,31.62,166.518,55.23,166.518,62.309z M165.297,42.602
		c-0.061-0.793-0.365-1.891-1.708-1.891c-4.088,0-7.81,14.276-7.81,20.683c0,1.83,0.305,2.989,1.037,2.989
		c2.441,0,4.819-6.102,6.651-13.423C164.016,48.337,164.626,45.47,165.297,42.602z"/>
	<path fill="#515A62" d="M178.536,62.491c0,1.282,0.305,2.014,1.098,2.014c2.258,0,5.612-7.383,6.284-8.724
		c0.366-0.672,0.732-1.038,1.037-1.038c0.244,0,0.427,0.243,0.427,0.609c0,0.306-0.061,0.612-0.244,1.038
		c-0.854,2.136-4.393,12.141-9.518,12.141c-2.379,0-4.393-1.708-4.393-6.284c0-3.659,2.318-14.947,4.76-23.916
		c0.305-1.038,1.28-1.586,2.439-1.586c1.525,0,3.173,1.037,3.173,3.112C183.6,43.09,178.536,57.794,178.536,62.491z M178.657,31.009
		c0-2.624,2.136-6.04,5.491-6.04c2.502,0,3.601,1.464,3.601,3.172c0,2.562-2.503,5.796-6.346,5.796
		C179.512,33.938,178.657,32.596,178.657,31.009z"/>
	<path fill="#515A62" d="M191.103,57.062c-0.488,2.502-1.037,5.064-1.586,8.053c6.712-0.854,12.08-2.746,15.252-9.333
		c0.305-0.611,0.672-0.917,0.977-0.917c0.245,0,0.428,0.245,0.428,0.672c0,0.245-0.062,0.548-0.183,0.854
		c-2.99,7.26-8.787,10.311-16.229,11.714c2.196,1.037,3.966,5.735,3.966,10.128c0,4.088-1.586,7.871-5.98,7.871
		c-3.659,0-5.003-3.417-5.003-8.848c0-5.856,1.526-13.971,3.356-22.635c3.6-17.083,6.895-32.153,15.253-32.153
		c1.465,0,2.562,0.792,2.806,1.769c0.915,0.488,2.38,1.891,2.38,5.247C206.538,44.066,196.96,56.818,191.103,57.062z
		 M190.309,77.256c0-2.257-0.487-4.881-1.646-7.504c-2.014,9.457-2.319,11.104-2.319,12.385s0.429,2.075,1.038,2.075
		C188.906,84.212,190.309,81.282,190.309,77.256z M202.572,24.786c-2.745,0-6.406,10.677-11.104,30.262
		c5.612-5.002,12.324-22.208,12.324-27.943C203.793,25.701,203.731,24.786,202.572,24.786z"/>
	<path fill="#515A62" d="M201.595,82.32c0-6.711,6.468-9.213,12.631-12.996c0.244-1.83,0.549-3.843,0.915-5.979
		c-1.586,3.295-3.66,5.187-6.224,5.187c-3.661,0-4.881-2.562-4.881-6.405c0-6.161,3.052-15.558,4.393-23.063
		c0.184-1.22,1.099-1.708,2.196-1.708c1.587,0,3.418,1.159,3.418,2.685c0,2.135-0.977,5.247-1.709,8.541
		c-1.221,5.37-2.502,11.105-2.502,13.485c0,1.463,0.366,2.317,1.281,2.317c3.295,0,4.515-7.077,7.199-17.51
		c0.977-4.576,1.709-7.81,1.709-7.81c0.243-1.037,1.221-1.525,2.257-1.525c1.526,0,3.234,0.977,3.234,2.38
		c0,1.647-0.977,2.318-4.881,24.709c2.439-2.259,4.698-5.063,6.527-8.846c0.306-0.672,0.794-1.1,1.099-1.1
		c0.244,0,0.366,0.183,0.366,0.611c0,0.243-0.062,0.609-0.243,1.098c-2.259,5.675-5.31,9.396-8.421,12.141
		c-2.746,14.46-7.321,19.769-12.141,19.769C204.829,88.3,201.595,85.677,201.595,82.32z M206.416,86.408
		c5.735,0,6.833-9.274,7.32-13.301c-4.331,2.745-9.578,5.674-9.578,10.555c0,1.343,0.733,2.136,1.647,2.685
		C205.989,86.408,206.171,86.408,206.416,86.408z"/>
</g>
</svg>
