<?xml version="1.0" encoding="utf-8"?>
<!-- Generator: Adobe Illustrator 16.0.4, SVG Export Plug-In . SVG Version: 6.00 Build 0)  -->
<!DOCTYPE svg PUBLIC "-//W3C//DTD SVG 1.1//EN" "http://www.w3.org/Graphics/SVG/1.1/DTD/svg11.dtd">
<svg version="1.1" id="Layer_2" xmlns="http://www.w3.org/2000/svg" xmlns:xlink="http://www.w3.org/1999/xlink" x="0px" y="0px"
	 width="308px" height="108px" viewBox="0 0 308 108" enable-background="new 0 0 308 108" xml:space="preserve">
<g>
	<path fill="#515A62" d="M64.672,74.884c1.695-0.904,5.255-2.6,5.255-6.441V40.021h-4.068v-5.198H80.55v5.198h-4.068v28.421
		c0,7.571-4.859,9.097-9.832,10.962L64.672,74.884z"/>
	<path fill="#515A62" d="M83.829,52.057c0-10.566,7.458-17.912,17.912-17.912c10.396,0,17.911,7.346,17.911,17.912
		c0,10.565-7.515,17.854-17.911,17.854C91.287,69.911,83.829,62.622,83.829,52.057z M112.928,52.057
		c0-7.685-4.803-12.431-11.188-12.431c-6.441,0-11.188,4.746-11.188,12.431c0,7.74,4.747,12.374,11.188,12.374
		C108.125,64.431,112.928,59.797,112.928,52.057z"/>
	<path fill="#515A62" d="M123.216,64.035h4.633V40.021h-4.633v-5.198h17.121c7.628,0,12.826,3.276,12.826,8.983
		c0,3.277-1.694,6.329-6.498,7.798c5.254,1.3,7.515,4.464,7.515,8.362c0,5.594-4.577,9.267-13.109,9.267h-17.855V64.035z
		 M139.884,49.288c4.294,0,6.78-1.695,6.78-4.747c0-2.994-2.486-4.576-6.328-4.576h-6.046v9.323H139.884z M140.901,64.092
		c4.181,0,6.724-1.695,6.724-4.859c0-2.995-2.316-4.973-6.893-4.973h-6.441v9.832H140.901z"/>
	<path fill="#515A62" d="M158.477,64.035h4.634V40.021h-4.634v-5.198h15.821v5.198h-4.633v24.014h4.633v5.198h-15.821V64.035z"/>
	<path fill="#515A62" d="M178.819,64.035h4.634V40.021h-4.634v-5.198h27.913v10.565h-6.046v-5.311h-10.679v10.113h12.204v5.312
		h-12.204v8.532h4.915v5.198h-16.104V64.035z"/>
	<path fill="#515A62" d="M217.696,64.035h4.859v-6.667l-11.131-17.347h-3.955v-5.198h16.047v5.142h-4.916l7.232,11.526l7.289-11.526
		h-4.916v-5.142h15.651v5.198h-3.785L229.11,57.028v7.007h4.859v5.198h-16.273V64.035z"/>
</g>
</svg>
