<?xml version="1.0" encoding="utf-8"?>
<!-- Generator: Adobe Illustrator 16.0.4, SVG Export Plug-In . SVG Version: 6.00 Build 0)  -->
<!DOCTYPE svg PUBLIC "-//W3C//DTD SVG 1.1//EN" "http://www.w3.org/Graphics/SVG/1.1/DTD/svg11.dtd">
<svg version="1.1" id="Layer_7" xmlns="http://www.w3.org/2000/svg" xmlns:xlink="http://www.w3.org/1999/xlink" x="0px" y="0px"
	 width="308px" height="108px" viewBox="0 0 308 108" enable-background="new 0 0 308 108" xml:space="preserve">
<g>
	<g>
		<path fill="#515A63" d="M79.476,50.8l-4.725,9.55h-2.325l-4.7-9.55v11h-3.9V44.325h5.275l4.5,9.6l4.525-9.6h5.25V61.8h-3.9V50.8z"
			/>
		<path fill="#515A63" d="M104.626,61.8l-1.625-3.774h-7.325L94.051,61.8h-4.15l7.55-17.475h3.775l7.55,17.475H104.626z
			 M99.351,49.525l-2.2,5.075h4.375L99.351,49.525z"/>
		<path fill="#515A63" d="M129.477,50.125c0,2.8-1.109,4.607-3.326,5.425l4.426,6.25h-4.801l-3.875-5.575h-2.7V61.8h-3.9V44.325
			h6.625c2.716,0,4.654,0.458,5.812,1.375S129.477,48.092,129.477,50.125z M124.776,52.2c0.483-0.433,0.725-1.121,0.725-2.062
			c0-0.941-0.25-1.587-0.75-1.938c-0.5-0.351-1.375-0.525-2.625-0.525h-2.925v5.175h2.85C123.384,52.85,124.292,52.633,124.776,52.2
			z"/>
		<path fill="#515A63" d="M137.977,44.325h3.899V51.5l6.601-7.175h4.824l-6.949,7.725c0.6,0.833,1.707,2.388,3.324,4.663
			c1.616,2.273,2.825,3.971,3.625,5.087h-4.55l-5.125-6.899l-1.75,1.949v4.95h-3.899V44.325L137.977,44.325z"/>
		<path fill="#515A63" d="M172.826,44.325V47.8h-8.7V51.4h7.825v3.324h-7.825v3.625h8.976v3.45h-12.875V44.325H172.826z"/>
		<path fill="#515A63" d="M188.477,47.7v14.1h-3.899V47.7h-4.95v-3.375h13.8V47.7H188.477z"/>
		<path fill="#515A63" d="M200.775,44.325h3.898V61.8h-3.898V44.325z"/>
		<path fill="#515A63" d="M225.475,44.325v3.425h-8.101v3.775h7.7v3.425h-7.7v6.85h-3.899V44.325H225.475z"/>
		<path fill="#515A63" d="M240.799,61.8H236.9V54.9l-6.051-10.575h4.226l3.774,6.5l3.774-6.5h4.226L240.799,54.9V61.8z"/>
	</g>
	<rect x="257" y="28" fill="#515A63" width="3" height="52"/>
	<rect x="48" y="28" fill="#515A63" width="3" height="52"/>
	<rect x="48" y="28" fill="#515A63" width="212" height="3"/>
	<rect x="48" y="77" fill="#515A63" width="212" height="3"/>
</g>
</svg>
