<?xml version="1.0" encoding="utf-8"?>
<!-- Generator: Adobe Illustrator 16.0.4, SVG Export Plug-In . SVG Version: 6.00 Build 0)  -->
<!DOCTYPE svg PUBLIC "-//W3C//DTD SVG 1.1//EN" "http://www.w3.org/Graphics/SVG/1.1/DTD/svg11.dtd">
<svg version="1.1" id="Layer_3" xmlns="http://www.w3.org/2000/svg" xmlns:xlink="http://www.w3.org/1999/xlink" x="0px" y="0px"
	 width="212px" height="52px" viewBox="0 0 212 52" enable-background="new 0 0 212 52" xml:space="preserve">
<g>
	<g>
		<path fill="#FFFFFF" d="M31.476,22.8l-4.725,9.55h-2.325l-4.7-9.55v11h-3.9V16.325h5.275l4.5,9.6l4.525-9.6h5.25V33.8h-3.9V22.8z"
			/>
		<path fill="#FFFFFF" d="M56.626,33.8l-1.625-3.774h-7.325L46.051,33.8h-4.15l7.55-17.475h3.775l7.55,17.475H56.626z
			 M51.351,21.525l-2.2,5.075h4.375L51.351,21.525z"/>
		<path fill="#FFFFFF" d="M81.476,22.125c0,2.8-1.109,4.608-3.325,5.425l4.425,6.25h-4.8l-3.875-5.575h-2.7V33.8h-3.9V16.325h6.625
			c2.716,0,4.654,0.458,5.812,1.375C80.896,18.617,81.476,20.092,81.476,22.125z M76.776,24.2c0.483-0.433,0.725-1.121,0.725-2.062
			c0-0.941-0.25-1.587-0.75-1.938s-1.375-0.525-2.625-0.525h-2.925v5.175h2.85C75.384,24.85,76.292,24.633,76.776,24.2z"/>
		<path fill="#FFFFFF" d="M89.976,16.325h3.9V23.5l6.6-7.175h4.825l-6.95,7.725c0.6,0.833,1.708,2.388,3.325,4.663
			c1.616,2.274,2.825,3.971,3.625,5.087h-4.55l-5.125-6.9l-1.75,1.95v4.95h-3.9V16.325z"/>
		<path fill="#FFFFFF" d="M124.826,16.325V19.8h-8.7v3.6h7.825v3.325h-7.825v3.625h8.976v3.45h-12.875V16.325H124.826z"/>
		<path fill="#FFFFFF" d="M140.476,19.7v14.1h-3.899V19.7h-4.95v-3.375h13.8V19.7H140.476z"/>
		<path fill="#FFFFFF" d="M152.775,16.325h3.899V33.8h-3.899V16.325z"/>
		<path fill="#FFFFFF" d="M177.475,16.325v3.425h-8.101v3.775h7.7v3.425h-7.7v6.85h-3.899V16.325H177.475z"/>
		<path fill="#FFFFFF" d="M192.799,33.8h-3.899v-6.9l-6.051-10.575h4.226l3.774,6.5l3.775-6.5h4.225l-6.05,10.575V33.8z"/>
	</g>
	<rect x="209" fill="#FFFFFF" width="3" height="52"/>
	<rect fill="#FFFFFF" width="3" height="52"/>
	<rect fill="#FFFFFF" width="212" height="3"/>
	<rect y="49" fill="#FFFFFF" width="212" height="3"/>
</g>
</svg>
